<svg width="75" height="75" viewBox="0 0 75 75" fill="none" xmlns="http://www.w3.org/2000/svg">
<path d="M37.3199 0C36.3143 0 35.3087 0.385159 34.5382 1.15573L28.489 7.20492L35.2646 13.9802C35.9266 13.755 36.6207 13.6388 37.3199 13.6361C39.033 13.6361 40.6759 14.3166 41.8873 15.5279C43.0986 16.7393 43.7791 18.3822 43.7791 20.0953C43.7772 20.795 43.6615 21.4897 43.4367 22.1523L52.4891 31.2047C53.1511 30.9795 53.8452 30.8633 54.5444 30.8606C56.2575 30.8606 57.9004 31.5411 59.1118 32.7525C60.3231 33.9638 61.0036 35.6067 61.0036 37.3198C61.0036 39.0329 60.3231 40.6758 59.1118 41.8871C57.9004 43.0985 56.2575 43.779 54.5444 43.779C52.8313 43.779 51.1884 43.0985 49.9771 41.8871C48.7658 40.6758 48.0852 39.0329 48.0852 37.3198C48.0872 36.6202 48.2029 35.9256 48.4276 35.2631L40.1907 27.0261V48.7667C41.267 49.3007 42.173 50.1243 42.8069 51.145C43.4408 52.1656 43.7775 53.3428 43.7791 54.5443C43.7791 56.2574 43.0986 57.9003 41.8873 59.1117C40.6759 60.323 39.033 61.0035 37.3199 61.0035C35.6068 61.0035 33.9639 60.323 32.7526 59.1117C31.5412 57.9003 30.8607 56.2574 30.8607 54.5443C30.8613 53.3419 31.1975 52.1635 31.8314 51.1417C32.4654 50.12 33.372 49.2955 34.4492 48.7611V25.8729C33.3729 25.3389 32.4668 24.5153 31.8329 23.4946C31.199 22.474 30.8623 21.2968 30.8607 20.0953C30.8627 19.3957 30.9783 18.7011 31.2031 18.0386L24.4292 11.2647L1.15586 34.538C-0.385285 36.0792 -0.385285 38.5604 1.15586 40.1015L34.5382 73.4838C36.0793 75.025 38.5605 75.025 40.1017 73.4838L73.484 40.1015C75.0251 38.5604 75.0251 36.0792 73.484 34.538L40.1017 1.15573C39.3311 0.385159 38.3256 0 37.3199 0V0Z" fill="#4A2C40"/>
</svg>
