<svg width="80" height="80" viewBox="0 0 80 80" fill="none" xmlns="http://www.w3.org/2000/svg">
<path fill-rule="evenodd" clip-rule="evenodd" d="M39.995 0C17.91 0 0 17.91 0 40C0 57.67 11.46 72.665 27.355 77.955C29.355 78.32 30.085 77.085 30.085 76.025C30.085 75.075 30.05 72.56 30.03 69.22C18.905 71.635 16.555 63.86 16.555 63.86C14.735 59.24 12.115 58.01 12.115 58.01C8.485 55.53 12.39 55.58 12.39 55.58C16.405 55.865 18.515 59.7 18.515 59.7C22.085 65.815 27.875 64.05 30.155 63.025C30.52 60.44 31.55 58.675 32.695 57.68C23.815 56.67 14.475 53.24 14.475 37.91C14.475 33.545 16.035 29.975 18.59 27.175C18.185 26.165 16.81 22.095 18.99 16.59C18.99 16.59 22.35 15.515 29.99 20.69C33.18 19.805 36.6 19.36 40 19.345C43.395 19.36 46.82 19.805 50.015 20.69C57.65 15.515 61.005 16.59 61.005 16.59C63.185 22.095 61.815 26.165 61.405 27.175C63.97 29.97 65.515 33.54 65.515 37.91C65.515 53.275 56.165 56.66 47.25 57.65C48.685 58.885 49.965 61.325 49.965 65.055C49.965 70.4 49.915 74.715 49.915 76.03C49.915 77.1 50.635 78.345 52.665 77.955C68.55 72.65 80 57.67 80 40C80 17.91 62.09 0 39.995 0Z" fill="#4A2C40"/>
</svg>
