<svg width="39" height="85" viewBox="0 0 39 85" fill="none" xmlns="http://www.w3.org/2000/svg">
<path d="M32.7902 64.9274L30.4492 69.0117L29.6855 82.327C29.6855 83.8046 24.9869 85 19.2092 85C13.4315 85 8.73298 83.8046 8.73298 82.327L7.77003 69.1445L5.29624 64.9274C12.1365 67.7997 26.2155 67.7001 32.7902 64.9274ZM0.249039 22.873L2.507 43.7093C3.48655 40.3888 5.96034 35.9061 9.14805 34.5446C10.194 34.0964 11.2566 34.0964 12.2527 34.6941C13.1161 35.1921 13.8466 36.2381 13.9296 36.6532C14.1288 37.7323 13.5975 38.164 13.1825 38.164C12.6844 38.164 12.3025 37.4003 12.0535 36.952C11.3728 35.74 10.3434 35.6902 9.24766 36.4871C8.10208 37.3173 7.10592 38.7119 6.40861 39.9239C5.56188 41.3849 4.84797 42.9954 4.4163 44.6058C4.16726 45.5356 3.93482 47.0298 4.31668 47.9097C4.48271 48.275 4.73175 48.5074 5.13021 48.5074C5.96034 48.5074 7.17233 47.4117 7.75342 46.8306C8.50054 46.0835 9.46349 44.9213 9.82875 44.1742L10.6921 41.6007C11.1238 40.4718 12.3357 40.671 12.3357 41.6007C12.3357 43.2942 11.7215 43.8587 10.6755 47.3619C9.71253 50.5994 9.41369 51.6453 9.41369 51.6453C9.29747 52.1102 8.8492 52.8905 8.36772 52.8905C8.16849 52.8905 8.01907 52.8241 7.93605 52.6913C7.77003 52.4589 7.78663 51.8114 7.80323 51.6453C7.83644 51.1141 8.8492 47.9596 9.01522 47.4615C8.68317 47.8267 8.33452 48.192 7.95266 48.5572C7.05611 49.404 5.61169 50.5164 4.38309 50.5164C3.8186 50.5164 3.45335 50.3669 3.10469 50.1179L4.36649 63.3336C4.69854 64.1637 10.8747 66.1726 19.01 66.1726C27.1619 66.1726 33.3381 64.1471 33.6535 63.3336L35.4632 47.6275C34.5168 48.4908 33.4211 49.5534 32.2091 50.0847C31.3125 50.4666 29.3202 50.7156 29.3202 49.1383C29.3202 48.275 30.8311 46.6812 31.711 45.5688C31.9434 45.2865 32.4913 44.5892 32.4913 44.224C32.4913 43.7425 31.4952 43.8587 30.5488 44.639C30.0175 45.0873 29.5195 45.685 29.1044 46.2495C28.3905 47.2456 28.0086 48.109 27.6932 48.8229C26.6638 51.1805 27.0125 50.2507 26.1823 52.4755C25.3522 54.6836 25.485 54.4346 25.319 54.7998C25.1696 55.1153 24.9537 55.3809 24.6549 55.547C24.3394 55.713 23.9078 55.6964 23.6421 55.4971C23.4927 55.3975 23.4263 55.1817 23.4263 54.8828C23.4263 54.7334 23.4429 54.584 23.4761 54.4346C23.7251 53.4218 24.7711 51.4295 25.9665 48.7399C26.2321 48.1256 26.1325 48.3082 26.0993 48.358C25.07 49.3542 24.2896 49.8356 23.7085 50.1013C22.7456 50.533 21.5502 50.533 21.3012 49.4206C21.2846 49.3542 21.2846 49.2878 21.268 49.2214C19.3088 50.7488 17.2335 51.1639 17.9474 47.8765C17.1837 49.238 15.8555 50.3503 14.2284 50.3503C13.5477 50.3503 13.0497 50.1179 12.8006 49.5036C12.4188 48.5905 13.0165 47.0298 13.5643 45.5522C13.8466 44.8051 14.2284 43.9085 14.7431 42.8625C15.0088 42.2981 15.4404 41.966 16.0049 42.1154C16.1045 42.1486 16.1876 42.1818 16.2706 42.2316C16.7022 42.5305 16.5362 42.9788 16.3204 43.427C15.6895 44.6722 15.1416 45.5854 14.7763 46.8804C14.6269 47.4283 14.4443 48.3746 15.0254 48.3746C15.4238 48.3746 15.8057 48.2418 16.171 47.9762C16.9347 47.4117 17.549 46.5649 18.0138 45.7348C18.3459 45.1371 18.7444 44.3568 18.9436 43.6927C19.0266 43.4104 19.1262 43.1448 19.2424 42.8958C19.4251 42.4807 19.6741 42.049 20.1058 42.049C20.3216 42.049 20.5042 42.132 20.6371 42.2981C20.9193 42.6633 20.8529 43.0452 20.7035 43.4436C20.3714 44.3734 19.9231 45.2035 19.5579 46.2163C19.3421 46.7974 19.1096 47.5445 19.1096 48.1588C19.1096 48.7233 19.7239 48.5905 20.2386 48.358C20.6371 48.1754 21.0355 47.8931 21.3676 47.6109C21.5668 46.7974 21.517 46.98 25.7507 36.2879C25.9665 35.74 26.365 35.5076 26.7634 35.5076C26.9627 35.5076 27.1287 35.574 27.2947 35.6902C27.577 35.9061 27.577 36.3709 27.4607 36.7196C27.3445 37.035 27.3611 36.9354 26.7136 38.4629C25.8503 40.4718 25.2858 41.9162 24.5221 43.7591C24.2066 44.5228 23.2437 46.897 23.0776 47.4615C22.978 47.8267 22.8618 48.4244 23.2437 48.4244C24.1402 48.4244 26.448 46.2495 27.0789 45.602C27.1121 45.5522 27.1619 45.5356 27.2283 45.5024C27.3279 45.1869 27.4275 44.8881 27.5105 44.5892C27.743 43.9583 27.9588 43.2278 28.3905 42.7131C28.5233 42.5471 28.6727 42.4475 28.8388 42.4475C29.3036 42.4475 29.5361 42.6467 29.5361 43.1116C29.5361 43.2942 29.4198 43.9583 29.3534 44.1409C29.5859 43.8919 29.8349 43.6429 30.1006 43.3938C32.5909 41.0861 34.3674 42.2649 34.3674 43.427C34.3674 44.6556 32.8898 46.3657 32.0763 47.312C31.8106 47.6275 31.2627 48.2086 31.2461 48.3746C31.2461 48.5905 31.3956 48.6735 31.6114 48.6735C31.9434 48.6735 32.674 48.0924 32.9396 47.8931C33.7697 47.2456 34.8987 46.2495 35.6956 45.5522L38.1528 22.8398C33.089 25.6788 5.34604 25.6954 0.249039 22.873ZM38.3853 21.4618C38.3853 24.9483 0 24.9483 0 21.4618C0 20.0007 8.60016 18.822 19.1926 18.822C20.6869 18.822 22.1479 18.8386 23.5591 18.8884L25.6511 10.8029L35.8285 0.0941952C36.0609 -0.138241 36.7914 0.0609899 37.4721 0.675287C38.1528 1.28958 38.5679 1.98689 38.3521 2.21933L38.3355 2.23593L28.8221 12.2805L27.1619 19.0378C33.7863 19.4695 38.3853 20.3826 38.3853 21.4618ZM26.863 22.2255C26.863 22.0927 26.7136 21.9764 26.448 21.8768L26.4148 22.0097C26.4148 22.2255 25.5846 22.4081 24.5719 22.4081C23.5591 22.4081 22.729 22.2255 22.729 22.0097C22.729 21.9931 22.729 21.9764 22.7456 21.9598L22.7788 21.8436C22.4799 21.9432 22.2807 22.0761 22.2807 22.2255C22.2807 22.5741 23.3101 22.8398 24.5553 22.8398C25.8337 22.8564 26.863 22.5741 26.863 22.2255Z" fill="#4A2C40"/>
</svg>
