<svg width="80" height="80" viewBox="0 0 80 80" fill="none" xmlns="http://www.w3.org/2000/svg">
<path d="M56.2417 27.7125C55.8946 26.8135 55.363 25.9972 54.6813 25.3162C53.9995 24.6352 53.1827 24.1045 52.2833 23.7583C51.045 23.2997 49.7371 23.0573 48.4167 23.0417C46.2208 22.9417 45.5625 22.9167 40 22.9167C34.4375 22.9167 33.7792 22.9417 31.5833 23.0417C30.2615 23.0568 28.9521 23.2992 27.7125 23.7583C26.8135 24.1054 25.9973 24.637 25.3162 25.3187C24.6352 26.0005 24.1045 26.8173 23.7583 27.7167C23.2997 28.955 23.0573 30.2629 23.0417 31.5833C22.9417 33.7792 22.9167 34.4375 22.9167 40C22.9167 45.5625 22.9417 46.2208 23.0417 48.4167C23.0568 49.7385 23.2992 51.0479 23.7583 52.2875C24.1054 53.1864 24.637 54.0027 25.3187 54.6838C26.0005 55.3648 26.8174 55.8955 27.7167 56.2417C28.955 56.7003 30.2629 56.9427 31.5833 56.9583C33.7792 57.0583 34.4375 57.0792 40 57.0792C45.5625 57.0792 46.2208 57.0583 48.4167 56.9542C49.7383 56.9404 51.0476 56.6993 52.2875 56.2417C53.1865 55.8946 54.0028 55.363 54.6838 54.6813C55.3648 53.9995 55.8955 53.1826 56.2417 52.2833C56.7003 51.045 56.9427 49.7371 56.9583 48.4167C57.0583 46.2208 57.0792 45.5625 57.0792 40C57.0792 34.4375 57.0583 33.7792 56.9542 31.5833C56.9404 30.2617 56.6994 28.9524 56.2417 27.7125ZM40 50.7C37.8838 50.7 35.815 50.0724 34.0554 48.8967C32.2958 47.721 30.9244 46.0499 30.1145 44.0947C29.3046 42.1395 29.0927 39.9881 29.5056 37.9125C29.9185 35.8369 30.9375 33.9304 32.434 32.4339C33.9304 30.9375 35.8369 29.9185 37.9125 29.5056C39.9881 29.0927 42.1396 29.3046 44.0947 30.1145C46.0499 30.9243 47.721 32.2958 48.8967 34.0554C50.0725 35.815 50.7 37.8837 50.7 40C50.7 42.8378 49.5727 45.5594 47.5661 47.566C45.5594 49.5727 42.8378 50.7 40 50.7ZM51.1208 31.3792C50.6264 31.3792 50.143 31.2325 49.7319 30.9578C49.3208 30.6831 49.0004 30.2927 48.8111 29.8359C48.6219 29.3791 48.5724 28.8764 48.6689 28.3914C48.7653 27.9065 49.0034 27.461 49.3531 27.1114C49.7027 26.7618 50.1482 26.5237 50.6331 26.4272C51.1181 26.3307 51.6207 26.3802 52.0775 26.5695C52.5344 26.7587 52.9248 27.0791 53.1995 27.4902C53.4742 27.9014 53.6208 28.3847 53.6208 28.8792C53.6208 29.5422 53.3574 30.1781 52.8886 30.6469C52.4198 31.1158 51.7839 31.3792 51.1208 31.3792ZM46.9458 40C46.9458 41.3737 46.5385 42.7166 45.7753 43.8589C45.012 45.0011 43.9272 45.8914 42.6581 46.4171C41.3889 46.9428 39.9923 47.0804 38.6449 46.8124C37.2976 46.5444 36.06 45.8828 35.0886 44.9114C34.1172 43.94 33.4556 42.7024 33.1876 41.3551C32.9196 40.0077 33.0572 38.6111 33.5829 37.3419C34.1086 36.0728 34.9989 34.988 36.1411 34.2247C37.2833 33.4615 38.6263 33.0542 40 33.0542C41.8422 33.0542 43.6089 33.7859 44.9115 35.0885C46.214 36.3911 46.9458 38.1578 46.9458 40ZM40 0C32.0888 0 24.3552 2.34596 17.7772 6.74121C11.1992 11.1365 6.07234 17.3836 3.04484 24.6927C0.0173313 32.0017 -0.774802 40.0444 0.768607 47.8036C2.31202 55.5628 6.12164 62.6902 11.7157 68.2843C17.3098 73.8784 24.4372 77.688 32.1964 79.2314C39.9556 80.7748 47.9983 79.9827 55.3073 76.9552C62.6164 73.9277 68.8635 68.8008 73.2588 62.2228C77.654 55.6448 80 47.9112 80 40C80 29.3913 75.7857 19.2172 68.2843 11.7157C60.7828 4.21427 50.6087 0 40 0V0ZM60.7083 48.5875C60.6731 50.3164 60.3448 52.0267 59.7375 53.6458C59.2024 55.0295 58.3841 56.2861 57.3351 57.3351C56.2861 58.3841 55.0295 59.2024 53.6458 59.7375C52.0281 60.3443 50.3191 60.6726 48.5917 60.7083C46.3667 60.8083 45.6583 60.8333 40 60.8333C34.3417 60.8333 33.6333 60.8083 31.4083 60.7083C29.6809 60.6726 27.972 60.3443 26.3542 59.7375C24.9705 59.2024 23.7139 58.3841 22.6649 57.3351C21.6159 56.2861 20.7976 55.0295 20.2625 53.6458C19.6557 52.028 19.3274 50.3191 19.2917 48.5917C19.1917 46.3667 19.1667 45.6583 19.1667 40C19.1667 34.3417 19.1917 33.6333 19.2917 31.4083C19.3261 29.6811 19.6529 27.9722 20.2583 26.3542C20.7934 24.9693 21.6121 23.7117 22.6619 22.6619C23.7117 21.6121 24.9693 20.7934 26.3542 20.2583C27.9722 19.6529 29.6811 19.3261 31.4083 19.2917C33.6333 19.1917 34.3417 19.1667 40 19.1667C45.6583 19.1667 46.3667 19.1917 48.5917 19.2917C50.3189 19.3261 52.0278 19.6529 53.6458 20.2583C55.0299 20.7939 56.2868 21.6128 57.3358 22.6626C58.3848 23.7123 59.2029 24.9697 59.7375 26.3542C60.3443 27.9719 60.6726 29.6809 60.7083 31.4083C60.8083 33.6333 60.8333 34.3417 60.8333 40C60.8333 45.6583 60.8083 46.3667 60.7083 48.5917V48.5875Z" fill="#4A2C40"/>
</svg>
