<svg width="75" height="54" viewBox="0 0 75 54" fill="none" xmlns="http://www.w3.org/2000/svg">
<path d="M46.4774 37.304C47.4468 39.2691 48.951 40.9209 50.817 42.0695C52.6831 43.2181 54.8354 43.8169 57.0265 43.7972C61.4574 43.7972 64.2884 41.5817 64.2884 38.5226C64.2884 34.8573 61.3793 33.5574 56.5047 31.4232L53.8299 30.2764C46.1149 26.9892 40.9872 22.8708 40.9872 14.1653C40.9872 6.14407 47.0992 0.0414517 56.6484 0.0414517C59.7477 -0.183434 62.8445 0.510282 65.5516 2.03587C68.2588 3.56145 70.4561 5.85121 71.869 8.61886L63.5416 13.9653C62.9963 12.5938 62.0466 11.4208 60.8187 10.602C59.5908 9.78318 58.1428 9.35743 56.6671 9.3813C56.0239 9.31658 55.3743 9.38661 54.7596 9.58692C54.145 9.78724 53.5788 10.1134 53.0973 10.5447C52.6157 10.976 52.2293 11.503 51.9627 12.0919C51.6961 12.6808 51.5551 13.3189 51.5488 13.9653C51.5488 17.1744 53.5362 18.4712 58.1108 20.4585L60.7856 21.6022C69.8723 25.4987 75 29.4702 75 38.4008C75 48.0281 67.4381 53.3026 57.2796 53.3026C53.3227 53.5543 49.3774 52.6557 45.9198 50.7151C42.4622 48.7745 39.64 45.8749 37.7937 42.366L46.4774 37.304ZM8.70552 38.2414C10.3866 41.2224 11.9146 43.7409 15.5799 43.7409C19.0922 43.7409 21.3107 42.366 21.3107 37.0227V0.666399H32.0036V37.1727C32.0036 48.2437 25.5104 53.2839 16.0362 53.2839C12.6895 53.465 9.36646 52.6289 6.50414 50.8854C3.64181 49.1419 1.37432 46.5727 0 43.5159L8.70552 38.2414Z" fill="#4A2C40"/>
</svg>
