<svg width="45" height="45" viewBox="0 0 45 45" fill="none" xmlns="http://www.w3.org/2000/svg">
<path d="M18.75 26.2497C19.361 26.8734 20.0903 27.3688 20.8952 27.707C21.7001 28.0452 22.5644 28.2194 23.4375 28.2194C24.3106 28.2194 25.1749 28.0452 25.9798 27.707C26.7847 27.3688 27.514 26.8734 28.125 26.2497L35.625 18.7497C36.8682 17.5065 37.5666 15.8204 37.5666 14.0622C37.5666 12.3041 36.8682 10.6179 35.625 9.37473C34.3818 8.13153 32.6957 7.43311 30.9375 7.43311C29.1793 7.43311 27.4932 8.13153 26.25 9.37473L25.3125 10.3122" stroke="#4A2C40" stroke-width="3.66931" stroke-linecap="round" stroke-linejoin="round"/>
<path d="M26.2497 18.75C25.6387 18.1264 24.9094 17.6309 24.1045 17.2927C23.2996 16.9545 22.4353 16.7803 21.5622 16.7803C20.6892 16.7803 19.8249 16.9545 19.02 17.2927C18.2151 17.6309 17.4858 18.1264 16.8747 18.75L9.37473 26.25C8.13153 27.4932 7.43311 29.1793 7.43311 30.9375C7.43311 32.6956 8.13153 34.3818 9.37473 35.625C10.6179 36.8682 12.3041 37.5666 14.0622 37.5666C15.8204 37.5666 17.5065 36.8682 18.7497 35.625L19.6872 34.6875" stroke="#4A2C40" stroke-width="3.66931" stroke-linecap="round" stroke-linejoin="round"/>
</svg>
