<svg width="75" height="85" viewBox="0 0 75 85" fill="none" xmlns="http://www.w3.org/2000/svg">
<path d="M67.461 43.7366C66.9668 43.1717 66.4453 42.6054 65.8965 42.0375C66.2798 41.6346 66.6508 41.232 67.0093 40.8298C73.7784 33.2242 76.6353 25.5969 73.9881 21.0113C71.4498 16.6147 63.899 15.3045 54.4462 17.1425C53.5151 17.3247 52.5891 17.5302 51.6683 17.759C51.492 17.1513 51.3045 16.5471 51.1058 15.9464C47.8991 6.28261 42.7189 -0.00332879 37.4243 1.3225e-06C32.3473 0.00231975 27.4404 5.88919 24.3101 14.996C24.0021 15.8944 23.7172 16.8003 23.4554 17.7137C22.8398 17.5626 22.2215 17.4231 21.6007 17.2951C11.6272 15.2474 3.59418 16.596 0.952144 21.1842C-1.58127 25.584 1.06819 32.7756 7.39532 40.0356C8.02281 40.7539 8.66806 41.4561 9.33108 42.1422C8.54947 42.9474 7.80934 43.752 7.11951 44.5522C0.945737 51.7098 -1.55222 58.7838 0.977099 63.1646C3.5893 67.6897 11.5093 69.1688 21.1491 67.2718C21.9304 67.117 22.7073 66.9427 23.4799 66.7491C23.7629 67.7371 24.0733 68.7164 24.4112 69.6872C27.5277 78.6113 32.4071 84.3086 37.4661 84.3068C42.6908 84.3037 47.9283 78.1824 51.1016 68.884C51.3522 68.1492 51.5894 67.3861 51.8143 66.6003C52.8123 66.8486 53.8167 67.0689 54.8276 67.2613C64.1155 69.0185 71.4887 67.6365 74.0135 63.2525C76.6206 58.7241 73.9324 51.1291 67.461 43.7366ZM4.07313 22.9813C5.69966 20.157 12.2645 19.0552 20.8758 20.823C21.4261 20.9362 21.9859 21.0627 22.5551 21.2024C21.7143 24.9215 21.1211 28.6922 20.7793 32.4897C17.6722 34.6755 14.7098 37.0602 11.9107 39.6288C11.294 38.991 10.6938 38.3377 10.11 37.6691L10.1103 37.6693C4.68907 31.4487 2.54638 25.6326 4.07313 22.9813ZM20.4567 47.1271C18.3045 45.4974 16.3044 43.8279 14.489 42.1488C16.3031 40.48 18.3045 38.8162 20.4523 37.1909C20.375 38.8465 20.3368 40.5035 20.3376 42.1616C20.3387 43.8174 20.3784 45.4725 20.4567 47.1271ZM20.4541 63.738C16.8005 64.5504 13.0286 64.6835 9.32686 64.1306C8.31209 64.0516 7.3243 63.7654 6.42454 63.2895C5.52477 62.8137 4.73215 62.1584 4.09564 61.3641C2.56097 58.7056 4.56674 53.0262 9.8467 46.9045C10.5105 46.1374 11.1961 45.3902 11.9034 44.6631C14.7029 47.2451 17.6701 49.6391 20.7856 51.8294C21.1321 55.6755 21.7323 59.4945 22.5822 63.2614C21.8769 63.4378 21.1675 63.5967 20.4541 63.738ZM50.3877 29.8495C48.9739 28.9587 47.5426 28.0964 46.0939 27.2628C44.6683 26.4422 43.2255 25.6524 41.7656 24.8935C44.2653 23.8424 46.7225 22.9448 49.0946 22.2133C49.6538 24.7353 50.0854 27.284 50.3877 29.8495ZM27.7161 16.1667C30.398 8.36351 34.3663 3.60276 37.4262 3.60145C40.685 3.59989 44.9191 8.73682 47.6877 17.0805C47.8675 17.6244 48.0376 18.1714 48.1977 18.7215C44.5604 19.8496 41.0017 21.2172 37.5449 22.8154C34.1026 21.1984 30.555 19.8156 26.9265 18.6762C27.1691 17.8333 27.4323 16.9968 27.7161 16.1667ZM26.0284 22.1684C28.5027 22.9474 30.9362 23.8506 33.3195 24.8747C30.3664 26.3986 27.4897 28.0586 24.6892 29.8546C25.0276 27.1653 25.4778 24.5886 26.0284 22.1684ZM24.6954 54.4607C26.0919 55.3547 27.5089 56.2157 28.9463 57.0435C30.4125 57.8877 31.8982 58.6964 33.4034 59.4697C31.0019 60.5292 28.5475 61.4647 26.05 62.2726C25.493 59.8189 25.0379 57.1969 24.6954 54.4607ZM47.6929 67.72C46.5715 71.291 44.8024 74.625 42.474 77.5555L42.4737 77.5557C41.8983 78.3951 41.1569 79.1077 40.2953 79.6493C39.4336 80.1909 38.4701 80.55 37.4642 80.7046C34.3945 80.7063 30.4766 76.1309 27.8114 68.4993C27.4975 67.597 27.2088 66.6865 26.9451 65.7678C30.591 64.5916 34.1529 63.1696 37.6064 61.5115C41.0916 63.12 44.6786 64.4979 48.3444 65.6363C48.1442 66.3359 47.9271 67.0305 47.6929 67.72ZM49.2199 62.138C46.8205 61.3961 44.3277 60.4834 41.7919 59.417C43.2214 58.6647 44.6612 57.8702 46.1114 57.0335C47.5996 56.1742 49.0498 55.2933 50.4621 54.391C50.1808 56.9929 49.7661 59.5787 49.2199 62.1381V62.138ZM51.1011 42.1461C51.1043 44.706 51.0243 47.264 50.8614 49.8198C48.7846 51.2253 46.592 52.5977 44.3107 53.9147C42.0389 55.2264 39.788 56.4317 37.58 57.5226C35.2564 56.4091 32.9777 55.2091 30.7437 53.9227C28.5223 52.6441 26.3519 51.2825 24.2324 49.8381C24.0387 47.283 23.9411 44.7233 23.9396 42.1589L23.9401 42.1597C23.9383 39.5972 24.0338 37.0373 24.2265 34.4801C26.3027 33.0622 28.4794 31.6909 30.7298 30.3916C32.9906 29.0861 35.2697 27.8859 37.5363 26.7981C39.8312 27.9134 42.0847 29.1087 44.2969 30.3839C46.5167 31.6597 48.6932 33.0068 50.8264 34.425C51.0096 36.9948 51.1013 39.5685 51.1014 42.1461H51.1011ZM55.1341 20.6781C63.2331 19.1028 69.3397 20.1625 70.8695 22.812C72.4992 25.6347 70.1635 31.8686 64.3196 38.4355L64.3194 38.4358C63.9965 38.798 63.6615 39.1618 63.3144 39.5272C60.4668 36.9532 57.4474 34.5761 54.2769 32.4123C53.9569 28.6563 53.3859 24.9259 52.5677 21.2462C53.4398 21.0316 54.2952 20.8423 55.1341 20.6781ZM54.5866 37.0534C56.7252 38.6148 58.7813 40.2861 60.7467 42.0605C58.79 43.8642 56.7403 45.5643 54.6061 47.154C54.6715 45.4849 54.7036 43.8151 54.7026 42.1444C54.7018 40.447 54.6632 38.75 54.5866 37.0534ZM70.8919 61.4549C69.3598 64.1155 63.4397 65.2249 55.4966 63.7221C54.5863 63.5503 53.6523 63.3457 52.6945 63.1085C53.493 59.3814 54.0386 55.6046 54.3278 51.804C57.4929 49.6024 60.5029 47.1857 63.3363 44.571C63.8321 45.0861 64.3037 45.5987 64.751 46.109V46.1087C67.2847 48.8636 69.2896 52.0615 70.6655 55.5423C71.1055 56.46 71.3526 57.4582 71.3915 58.4751C71.4304 59.4921 71.2604 60.5063 70.8919 61.4549ZM33.7186 35.5686C32.4291 36.3131 31.3893 37.4232 30.7308 38.7586C30.0722 40.0941 29.8245 41.5948 30.0188 43.071C30.2132 44.5472 30.841 45.9327 31.8227 47.0521C32.8045 48.1716 34.0962 48.9748 35.5344 49.3601C36.9727 49.7454 38.4929 49.6956 39.9028 49.217C41.3127 48.7383 42.5491 47.8523 43.4555 46.671C44.3618 45.4897 44.8976 44.0661 44.9949 42.5803C45.0922 41.0945 44.7467 39.6133 44.0022 38.3238C43.0038 36.5949 41.3595 35.3334 39.431 34.8167C37.5025 34.3 35.4478 34.5705 33.7187 35.5686L33.7186 35.5686Z" fill="#4A2C40"/>
</svg>
