<svg width="72" height="85" viewBox="0 0 72 85" fill="none" xmlns="http://www.w3.org/2000/svg">
<path d="M36.2603 50.7556C34.7987 51.4272 33.1973 52.3023 29.9914 54.0617C28.776 54.7454 27.5058 55.4291 26.3237 56.0733C26.2417 55.9913 26.1566 55.888 26.0746 55.8029C19.7328 49.0266 8.00346 44.2407 8.5018 35.1398C8.68716 31.8245 9.82667 23.1217 31.0276 12.5531C48.4758 3.95364 62.3596 6.33598 64.7571 11.6203C68.203 19.1532 57.3154 33.1707 39.2959 35.2036C37.3016 35.6081 35.2419 35.5592 33.269 35.0606C31.2961 34.562 29.4604 33.6264 27.8978 32.3229C26.9436 31.2867 26.8008 31.2259 26.4483 31.4326C25.8679 31.7364 26.2417 32.6754 26.4483 33.2132C27.1357 34.4577 28.0656 35.5518 29.183 36.4307C30.3005 37.3096 31.5828 37.9556 32.9542 38.3304C40.0453 39.8631 47.4387 39.1308 54.0913 36.2367C65.0124 32.0099 73.539 20.2593 71.0412 10.4078C68.5342 0.419641 51.9551 -2.8743 36.2694 2.69866C26.4461 6.009 17.3703 11.2201 9.55927 18.035C0.91722 26.1179 -0.450191 33.1433 0.108929 36.0848C2.12054 46.5288 16.5179 53.3263 22.2914 58.3615C21.9875 58.5286 21.7323 58.6653 21.5044 58.796C18.6237 60.2272 7.64185 65.9673 4.90399 72.0386C1.7954 78.9182 5.40233 83.85 7.78467 84.5125C11.3749 85.3724 15.144 85.0897 18.5657 83.7038C21.9874 82.3179 24.8909 79.898 26.8707 76.782C28.5519 74.1981 29.5843 71.2465 29.8801 68.178C30.1758 65.1095 29.7261 62.015 28.5693 59.1576C29.2519 58.6132 29.9797 58.1283 30.745 57.7081C32.2158 56.8391 33.6166 55.9822 34.8594 55.3197C39.1148 53.3265 43.7586 52.3002 48.4576 52.3145C58.3212 53.4752 60.269 59.6286 59.8952 62.2206C59.7204 63.1402 59.3506 64.0117 58.8107 64.7765C58.2708 65.5412 57.5734 66.1814 56.7654 66.6541C56.0817 67.0886 55.8538 67.2345 55.9145 67.5444C55.9966 68.0002 56.3278 67.9789 56.9082 67.8969C58.3901 67.4285 59.6958 66.5228 60.6535 65.2988C61.6113 64.0748 62.1763 62.5896 62.2745 61.0386C62.5784 54.9612 56.7836 48.2943 46.525 48.355C43.4532 48.3603 40.4122 48.9663 37.573 50.1388C37.1172 50.3272 36.6746 50.5297 36.2451 50.7465L36.2603 50.7556ZM21.5986 74.5759C18.3229 78.1403 13.7648 79.4865 11.7957 78.347C9.66866 77.1315 10.5104 71.8593 14.5306 68.0883C16.9116 65.943 19.4851 64.0216 22.2185 62.3482C22.6955 62.0444 23.4005 61.6432 24.2483 61.1328C24.3942 61.0507 24.4762 61.0082 24.4762 61.0082L24.9746 60.7043C25.6916 63.1082 25.7568 65.6595 25.1636 68.0969C24.5704 70.5344 23.3401 72.7703 21.5986 74.5759Z" fill="#4A2C40"/>
</svg>
