<svg width="80" height="80" viewBox="0 0 80 80" fill="none" xmlns="http://www.w3.org/2000/svg">
<path d="M40 1.37815e-07C32.0888 1.37815e-07 24.3552 2.34596 17.7772 6.74121C11.1992 11.1365 6.07234 17.3836 3.04484 24.6927C0.0173314 32.0017 -0.774802 40.0444 0.768607 47.8036C2.31202 55.5628 6.12165 62.6902 11.7157 68.2843C17.3098 73.8784 24.4372 77.688 32.1964 79.2314C39.9556 80.7748 47.9983 79.9827 55.3073 76.9552C62.6164 73.9277 68.8635 68.8008 73.2588 62.2228C77.654 55.6448 80 47.9112 80 40C80.0004 34.747 78.9661 29.5454 76.9561 24.6921C74.946 19.8389 71.9997 15.4292 68.2852 11.7148C64.5708 8.00032 60.1611 5.05396 55.3079 3.04393C50.4546 1.0339 45.253 -0.000435915 40 1.37815e-07ZM52.7181 60.6099C52.5683 60.9832 52.3405 61.3202 52.0499 61.5983C51.7593 61.8764 51.4126 62.0891 51.0331 62.2222C50.6535 62.3554 50.2499 62.4059 49.8492 62.3703C49.4486 62.3347 49.0602 62.2138 48.7101 62.0159L37.8514 53.5784L30.8821 60.008C30.7204 60.1275 30.5312 60.2044 30.332 60.2316C30.1328 60.2588 29.9299 60.2355 29.7421 60.1637L31.0781 48.2099L31.1209 48.2438L31.1482 48.0078C31.1482 48.0078 50.6882 30.2178 51.4842 29.4598C52.2901 28.7038 52.0242 28.5398 52.0242 28.5398C52.07 27.6177 50.5781 28.5398 50.5781 28.5398L24.688 45.196L13.9061 41.524C13.9061 41.524 12.2501 40.93 12.0941 39.624C11.9301 38.328 13.96 37.624 13.96 37.624L56.828 20.594C56.828 20.594 60.352 19.0239 60.352 21.624L52.7181 60.6099Z" fill="#4A2C40"/>
</svg>
